<svg width="198" height="48" viewBox="0 0 198 48" fill="none" xmlns="http://www.w3.org/2000/svg">
<g clip-path="url(#clip0_42_682)">
<path d="M38.3324 20.2551C38.277 19.5941 37.8404 18.6704 37.3723 18.1998L27.0167 7.84426C26.551 7.37613 25.7793 7.37613 25.3112 7.84426L23.1257 10.0297C22.2768 8.99236 21.3575 7.95058 20.3371 6.9278C16.1934 2.78371 11.7789 -3.05176e-05 9.35496 -3.05176e-05C8.7615 -3.05176e-05 8.29377 0.1641 7.96551 0.494381C7.11171 1.34818 7.35022 3.07317 8.64831 5.48984C9.87848 7.7719 11.9143 10.3915 14.3941 12.8688C18.5382 17.0129 22.9523 19.7991 25.3767 19.7991C25.9701 19.7991 26.4378 19.6325 26.7685 19.3022C27.3765 18.6942 27.4052 17.6233 26.9108 16.1882C28.2061 16.5258 29.1832 17.6476 29.1832 19.054C29.1832 20.7208 27.8277 22.0694 26.1678 22.0694C24.8265 22.0694 23.7313 21.1792 23.3384 19.9685C22.7861 19.7732 22.183 19.5173 21.4856 19.1434C20.0962 18.3955 18.5887 17.3343 17.0667 16.0896L14.956 18.2002C14.4903 18.6659 14.0561 19.5921 13.9983 20.2555L11.8032 46.7989C11.7454 47.4599 12.2398 48.0004 12.9007 48.0004H39.4348C40.0958 48.0004 40.5902 47.4599 40.5324 46.7989L38.3324 20.2551ZM9.1787 5.20767C8.06415 3.1427 7.76985 1.53859 8.38756 0.926133C8.59737 0.713895 8.92563 0.607575 9.34768 0.607575C11.5909 0.607575 15.9307 3.38162 19.9009 7.35915C20.9286 8.38193 21.8523 9.42412 22.6944 10.4635L17.9136 15.2418C16.8811 14.4046 15.8413 13.4639 14.8165 12.4411C12.3845 10.0083 10.3802 7.44162 9.1787 5.20767ZM26.3343 18.8753C26.127 19.0876 25.8011 19.1939 25.3742 19.1939C24.7953 19.1939 24.0644 19.0011 23.2417 18.651C23.4443 17.1843 24.6482 16.0362 26.1654 16.0362C26.1872 16.0362 26.2086 16.0483 26.2256 16.0483C26.7491 17.4038 26.7997 18.4169 26.3343 18.8753Z" fill="white"/>
</g>
<path d="M55.904 40.248C55.3493 40.248 54.7687 40.1093 54.162 39.832C53.5727 39.572 53.07 39.1386 52.654 38.532C52.2553 37.908 52.056 37.0846 52.056 36.062C52.056 34.866 52.16 33.6006 52.368 32.266C52.576 30.9313 52.8447 29.5966 53.174 28.262C53.5207 26.91 53.902 25.6273 54.318 24.414C54.734 23.2006 55.15 22.1173 55.566 21.164C55.9993 20.2106 56.398 19.4653 56.762 18.928C57.126 18.3733 57.4293 18.096 57.672 18.096C58.0013 18.096 58.2787 18.226 58.504 18.486C58.7467 18.746 58.868 19.11 58.868 19.578C58.868 19.7686 58.7553 20.2193 58.53 20.93C58.3047 21.6233 58.0187 22.4986 57.672 23.556C57.3253 24.6133 56.9527 25.7573 56.554 26.988C56.1727 28.2186 55.8087 29.458 55.462 30.706C55.1153 31.954 54.8293 33.1326 54.604 34.242C54.3787 35.3513 54.266 36.296 54.266 37.076C54.266 37.3013 54.3267 37.518 54.448 37.726C54.5693 37.9166 54.7687 38.012 55.046 38.012C55.4273 38.012 55.9733 37.9253 56.684 37.752C57.412 37.5786 58.2007 37.3706 59.05 37.128C59.8993 36.868 60.714 36.6166 61.494 36.374C62.274 36.1313 62.9327 35.9233 63.47 35.75C64.0073 35.5766 64.3107 35.49 64.38 35.49C64.588 35.49 64.7613 35.5506 64.9 35.672C65.0387 35.776 65.108 35.9406 65.108 36.166C65.108 36.4433 64.9 36.764 64.484 37.128C64.0853 37.492 63.548 37.856 62.872 38.22C62.2133 38.584 61.4767 38.9133 60.662 39.208C59.8473 39.52 59.024 39.7713 58.192 39.962C57.3773 40.1526 56.6147 40.248 55.904 40.248ZM70.0543 39.676C69.3956 39.676 68.8496 39.3726 68.4163 38.766C68.0003 38.142 67.7923 37.336 67.7923 36.348C67.7923 35.4293 68.0176 34.5193 68.4683 33.618C68.9363 32.7166 69.5516 31.85 70.3143 31.018C71.077 30.186 71.909 29.4233 72.8103 28.73C73.7116 28.0193 74.613 27.404 75.5143 26.884C76.433 26.364 77.2736 25.9566 78.0363 25.662C78.799 25.3673 79.4056 25.22 79.8563 25.22C80.099 25.22 80.2983 25.272 80.4543 25.376C80.6103 25.4626 80.6883 25.6273 80.6883 25.87C80.6883 26.026 80.6276 26.1733 80.5063 26.312C80.5236 26.312 80.541 26.312 80.5583 26.312C80.9396 26.312 81.1303 26.5373 81.1303 26.988C81.1303 27.144 81.0696 27.4646 80.9483 27.95C80.827 28.418 80.6883 29.0073 80.5323 29.718C80.3763 30.4286 80.2376 31.2173 80.1163 32.084C79.995 32.9333 79.9343 33.8 79.9343 34.684C79.9343 35.4293 80.2203 35.802 80.7923 35.802C81.4336 35.802 82.0836 35.6546 82.7423 35.36C83.401 35.0653 84.0423 34.71 84.6663 34.294C85.2903 33.8606 85.8623 33.436 86.3823 33.02C86.9023 32.5866 87.3443 32.2226 87.7083 31.928C88.0723 31.6333 88.3323 31.486 88.4883 31.486C88.627 31.486 88.7483 31.5293 88.8523 31.616C88.9563 31.7026 89.0083 31.8413 89.0083 32.032C89.0083 32.2053 88.835 32.5173 88.4883 32.968C88.1416 33.4186 87.6823 33.93 87.1103 34.502C86.5383 35.074 85.897 35.6286 85.1863 36.166C84.4756 36.7033 83.7476 37.1453 83.0023 37.492C82.257 37.8386 81.5463 38.012 80.8703 38.012C80.3503 38.012 79.8736 37.856 79.4403 37.544C79.0243 37.2146 78.6863 36.66 78.4263 35.88C78.1836 35.1 78.0623 34.0253 78.0623 32.656V32.006C77.213 33.41 76.3203 34.6926 75.3843 35.854C74.4656 37.0153 73.547 37.9426 72.6283 38.636C71.727 39.3293 70.869 39.676 70.0543 39.676ZM79.3623 27.092C79.2756 27.1266 79.1543 27.1786 78.9983 27.248C78.201 27.612 77.369 28.0626 76.5023 28.6C75.653 29.1373 74.821 29.7353 74.0063 30.394C73.209 31.0526 72.4896 31.7373 71.8483 32.448C71.207 33.1586 70.6956 33.878 70.3143 34.606C69.933 35.334 69.7423 36.0446 69.7423 36.738C69.7423 36.9633 69.7856 37.1366 69.8723 37.258C69.9763 37.3793 70.1496 37.44 70.3923 37.44C70.739 37.44 71.1896 37.2233 71.7443 36.79C72.299 36.3393 72.9056 35.75 73.5643 35.022C74.2403 34.294 74.9163 33.488 75.5923 32.604C76.2683 31.72 76.9096 30.8273 77.5163 29.926C78.1403 29.0246 78.6776 28.1926 79.1283 27.43C79.1976 27.3086 79.2756 27.196 79.3623 27.092ZM90.0721 39.026C89.3267 39.026 88.7981 38.8786 88.4861 38.584C88.1741 38.2893 88.0181 37.856 88.0181 37.284C88.0181 34.4066 88.5381 31.3993 89.5781 28.262C90.6181 25.1073 92.0741 21.944 93.9461 18.772C94.1887 18.3733 94.3794 18.122 94.5181 18.018C94.6741 17.914 94.8561 17.862 95.0641 17.862C95.3067 17.862 95.5234 17.9486 95.7141 18.122C95.9047 18.2953 96.0001 18.5293 96.0001 18.824C96.0001 18.98 95.8441 19.4046 95.5321 20.098C95.2201 20.774 94.8214 21.6493 94.3361 22.724C93.8507 23.7986 93.3307 25.0033 92.7761 26.338C92.2387 27.6553 91.7274 29.0333 91.2421 30.472C90.7567 31.9106 90.3667 33.3406 90.0721 34.762C90.4707 34.1726 90.9474 33.54 91.5021 32.864C92.0741 32.188 92.6807 31.512 93.3221 30.836C93.9634 30.16 94.6134 29.5446 95.2721 28.99C95.9481 28.4353 96.5981 27.9933 97.2221 27.664C97.8461 27.3346 98.4181 27.17 98.9381 27.17C99.6141 27.17 100.203 27.456 100.706 28.028C101.226 28.5826 101.486 29.4233 101.486 30.55C101.486 31.5033 101.226 32.4826 100.706 33.488C100.186 34.476 99.4234 35.3946 98.4181 36.244C97.4301 37.076 96.2341 37.752 94.8301 38.272C93.4261 38.7746 91.8401 39.026 90.0721 39.026ZM90.1761 37.05C91.6147 37.05 92.9234 36.8073 94.1021 36.322C95.2807 35.8366 96.2861 35.2213 97.1181 34.476C97.9674 33.7133 98.6174 32.9246 99.0681 32.11C99.5361 31.278 99.7701 30.524 99.7701 29.848C99.7701 29.3626 99.6054 29.12 99.2761 29.12C98.8774 29.12 98.3661 29.3106 97.7421 29.692C97.1181 30.0733 96.4421 30.576 95.7141 31.2C95.0034 31.824 94.2927 32.5 93.5821 33.228C92.8714 33.9386 92.2127 34.632 91.6061 35.308C91.0167 35.984 90.5401 36.5646 90.1761 37.05ZM114.464 27.794C114.464 28.3486 114.29 28.8946 113.944 29.432C113.597 29.952 113.138 30.4546 112.566 30.94C111.994 31.408 111.361 31.85 110.668 32.266C109.974 32.682 109.281 33.046 108.588 33.358C107.894 33.67 107.262 33.9213 106.69 34.112C106.551 34.788 106.482 35.386 106.482 35.906C106.482 36.2353 106.56 36.4693 106.716 36.608C106.872 36.7466 107.114 36.816 107.444 36.816C108.172 36.816 108.943 36.686 109.758 36.426C110.572 36.166 111.404 35.828 112.254 35.412C113.103 34.996 113.918 34.554 114.698 34.086C115.478 33.618 116.188 33.176 116.83 32.76C117.488 32.344 118.034 32.006 118.468 31.746C118.901 31.486 119.187 31.356 119.326 31.356C119.534 31.356 119.69 31.4253 119.794 31.564C119.915 31.6853 119.976 31.8326 119.976 32.006C119.976 32.1446 119.759 32.4133 119.326 32.812C118.91 33.2106 118.346 33.6786 117.636 34.216C116.925 34.736 116.128 35.2733 115.244 35.828C114.36 36.3826 113.441 36.9026 112.488 37.388C111.552 37.8733 110.642 38.2633 109.758 38.558C108.891 38.8526 108.111 39 107.418 39C106.516 39 105.814 38.662 105.312 37.986C104.809 37.31 104.558 36.2613 104.558 34.84C104.558 33.8866 104.679 32.9246 104.922 31.954C105.182 30.9833 105.528 30.056 105.962 29.172C106.412 28.2706 106.906 27.4733 107.444 26.78C107.998 26.0693 108.579 25.5146 109.186 25.116C109.792 24.7 110.382 24.492 110.954 24.492C112.046 24.492 112.904 24.7953 113.528 25.402C114.152 26.0086 114.464 26.806 114.464 27.794ZM107.236 32.11C107.773 31.7806 108.328 31.434 108.9 31.07C109.472 30.706 110 30.3333 110.486 29.952C110.971 29.5706 111.361 29.172 111.656 28.756C111.968 28.3226 112.124 27.8806 112.124 27.43C112.124 26.7886 111.777 26.468 111.084 26.468C110.65 26.468 110.191 26.7453 109.706 27.3C109.238 27.8373 108.787 28.5393 108.354 29.406C107.92 30.2726 107.548 31.174 107.236 32.11ZM123.286 40.04C121.952 40.04 120.903 39.6066 120.14 38.74C119.395 37.856 119.022 36.6253 119.022 35.048C119.022 34.0773 119.152 32.942 119.412 31.642C119.69 30.3246 120.036 28.938 120.452 27.482C120.886 26.0086 121.354 24.5526 121.856 23.114C122.359 21.6753 122.844 20.3406 123.312 19.11C123.798 17.862 124.222 16.822 124.586 15.99C124.794 15.522 125.089 15.288 125.47 15.288C125.99 15.288 126.25 15.6086 126.25 16.25C126.25 16.458 126.155 16.8826 125.964 17.524C125.774 18.1653 125.522 18.9626 125.21 19.916C124.898 20.852 124.56 21.892 124.196 23.036C123.832 24.18 123.46 25.3586 123.078 26.572C122.714 27.768 122.376 28.9553 122.064 30.134C121.752 31.2953 121.501 32.3873 121.31 33.41C121.12 34.4326 121.024 35.308 121.024 36.036C121.024 36.504 121.146 36.8766 121.388 37.154C121.648 37.414 121.995 37.544 122.428 37.544C123.226 37.544 124.023 37.388 124.82 37.076C125.635 36.7466 126.415 36.348 127.16 35.88C127.906 35.3946 128.582 34.918 129.188 34.45C129.812 33.9646 130.341 33.566 130.774 33.254C131.208 32.9246 131.511 32.76 131.684 32.76C132.066 32.76 132.256 32.968 132.256 33.384C132.256 33.5226 132.118 33.7826 131.84 34.164C131.563 34.528 131.19 34.9613 130.722 35.464C130.254 35.9666 129.708 36.4866 129.084 37.024C128.478 37.544 127.836 38.038 127.16 38.506C126.502 38.9566 125.834 39.3206 125.158 39.598C124.5 39.8926 123.876 40.04 123.286 40.04ZM137.718 40.248C137.163 40.248 136.582 40.1093 135.976 39.832C135.386 39.572 134.884 39.1386 134.468 38.532C134.069 37.908 133.87 37.0846 133.87 36.062C133.87 34.866 133.974 33.6006 134.182 32.266C134.39 30.9313 134.658 29.5966 134.988 28.262C135.334 26.91 135.716 25.6273 136.132 24.414C136.548 23.2006 136.964 22.1173 137.38 21.164C137.813 20.2106 138.212 19.4653 138.576 18.928C138.94 18.3733 139.243 18.096 139.486 18.096C139.815 18.096 140.092 18.226 140.318 18.486C140.56 18.746 140.682 19.11 140.682 19.578C140.682 19.7686 140.569 20.2193 140.344 20.93C140.118 21.6233 139.832 22.4986 139.486 23.556C139.139 24.6133 138.766 25.7573 138.368 26.988C137.986 28.2186 137.622 29.458 137.276 30.706C136.929 31.954 136.643 33.1326 136.418 34.242C136.192 35.3513 136.08 36.296 136.08 37.076C136.08 37.3013 136.14 37.518 136.262 37.726C136.383 37.9166 136.582 38.012 136.86 38.012C137.241 38.012 137.787 37.9253 138.498 37.752C139.226 37.5786 140.014 37.3706 140.864 37.128C141.713 36.868 142.528 36.6166 143.308 36.374C144.088 36.1313 144.746 35.9233 145.284 35.75C145.821 35.5766 146.124 35.49 146.194 35.49C146.402 35.49 146.575 35.5506 146.714 35.672C146.852 35.776 146.922 35.9406 146.922 36.166C146.922 36.4433 146.714 36.764 146.298 37.128C145.899 37.492 145.362 37.856 144.686 38.22C144.027 38.584 143.29 38.9133 142.476 39.208C141.661 39.52 140.838 39.7713 140.006 39.962C139.191 40.1526 138.428 40.248 137.718 40.248ZM158.095 39.624C157.8 39.624 157.549 39.494 157.341 39.234C157.133 38.974 157.029 38.5926 157.029 38.09C157.029 37.5006 157.115 36.66 157.289 35.568C157.479 34.476 157.757 33.0286 158.121 31.226C157.653 32.3353 157.133 33.384 156.561 34.372C156.006 35.36 155.417 36.166 154.793 36.79C154.169 37.414 153.527 37.726 152.869 37.726C152.227 37.726 151.655 37.4746 151.153 36.972C150.667 36.4693 150.425 35.5853 150.425 34.32C150.425 33.6093 150.485 32.812 150.607 31.928C150.728 31.0266 150.884 30.134 151.075 29.25C151.265 28.366 151.456 27.5773 151.647 26.884C151.837 26.1733 152.011 25.6533 152.167 25.324C152.288 25.0466 152.409 24.8646 152.531 24.778C152.652 24.674 152.817 24.622 153.025 24.622C153.267 24.622 153.527 24.726 153.805 24.934C154.082 25.142 154.221 25.4886 154.221 25.974C154.221 26.0953 154.16 26.3813 154.039 26.832C153.935 27.2653 153.796 27.8026 153.623 28.444C153.467 29.068 153.302 29.744 153.129 30.472C152.955 31.2 152.808 31.928 152.687 32.656C152.583 33.384 152.531 34.0513 152.531 34.658C152.531 34.9873 152.565 35.256 152.635 35.464C152.704 35.672 152.877 35.776 153.155 35.776C153.397 35.776 153.701 35.5333 154.065 35.048C154.446 34.5626 154.853 33.9213 155.287 33.124C155.737 32.3093 156.197 31.408 156.665 30.42C157.15 29.432 157.618 28.418 158.069 27.378C158.537 26.338 158.961 25.35 159.343 24.414C159.481 24.102 159.629 23.9113 159.785 23.842C159.941 23.7553 160.114 23.712 160.305 23.712C160.617 23.712 160.894 23.842 161.137 24.102C161.397 24.3446 161.527 24.6653 161.527 25.064C161.527 25.324 161.475 25.7746 161.371 26.416C161.284 27.0573 161.154 27.8113 160.981 28.678C160.825 29.5273 160.643 30.4286 160.435 31.382C160.244 32.3353 160.053 33.28 159.863 34.216C159.672 35.1346 159.49 35.9753 159.317 36.738C159.161 37.5006 159.031 38.116 158.927 38.584C158.84 39.0173 158.719 39.2946 158.563 39.416C158.424 39.5546 158.268 39.624 158.095 39.624ZM165.692 38.064C165.432 38.064 165.241 37.9686 165.12 37.778C164.999 37.5873 164.938 37.3446 164.938 37.05C164.938 36.8073 165.094 36.4606 165.406 36.01C165.735 35.542 166.16 34.996 166.68 34.372C167.217 33.7306 167.807 33.046 168.448 32.318C169.089 31.59 169.739 30.8533 170.398 30.108C169.601 28.756 168.994 27.69 168.578 26.91C168.162 26.1126 167.954 25.4886 167.954 25.038C167.954 24.726 168.058 24.44 168.266 24.18C168.474 23.9026 168.682 23.764 168.89 23.764C169.133 23.764 169.367 23.9113 169.592 24.206C169.835 24.4833 170.129 24.96 170.476 25.636C170.823 26.2946 171.291 27.2046 171.88 28.366C172.833 27.222 173.622 26.286 174.246 25.558C174.887 24.83 175.399 24.2666 175.78 23.868C176.179 23.4693 176.491 23.192 176.716 23.036C176.959 22.8626 177.167 22.776 177.34 22.776C177.548 22.776 177.721 22.8626 177.86 23.036C177.999 23.192 178.068 23.452 178.068 23.816C178.068 24.1626 177.903 24.5873 177.574 25.09C177.262 25.5926 176.846 26.1386 176.326 26.728C175.806 27.3173 175.243 27.924 174.636 28.548C174.047 29.1546 173.483 29.744 172.946 30.316C173.813 31.8066 174.645 33.1066 175.442 34.216C176.239 35.308 176.881 36.2093 177.366 36.92C177.869 37.6306 178.12 38.1506 178.12 38.48C178.12 38.7053 178.068 38.8786 177.964 39C177.86 39.104 177.661 39.156 177.366 39.156C177.158 39.156 176.915 39.0693 176.638 38.896C176.361 38.7226 176.005 38.3846 175.572 37.882C175.156 37.3793 174.61 36.6513 173.934 35.698C173.275 34.7273 172.461 33.462 171.49 31.902C170.883 32.578 170.277 33.28 169.67 34.008C169.081 34.7186 168.517 35.386 167.98 36.01C167.46 36.6166 167.001 37.1106 166.602 37.492C166.203 37.8733 165.9 38.064 165.692 38.064ZM191.631 27.794C191.631 28.3486 191.458 28.8946 191.111 29.432C190.764 29.952 190.305 30.4546 189.733 30.94C189.161 31.408 188.528 31.85 187.835 32.266C187.142 32.682 186.448 33.046 185.755 33.358C185.062 33.67 184.429 33.9213 183.857 34.112C183.718 34.788 183.649 35.386 183.649 35.906C183.649 36.2353 183.727 36.4693 183.883 36.608C184.039 36.7466 184.282 36.816 184.611 36.816C185.339 36.816 186.11 36.686 186.925 36.426C187.74 36.166 188.572 35.828 189.421 35.412C190.27 34.996 191.085 34.554 191.865 34.086C192.645 33.618 193.356 33.176 193.997 32.76C194.656 32.344 195.202 32.006 195.635 31.746C196.068 31.486 196.354 31.356 196.493 31.356C196.701 31.356 196.857 31.4253 196.961 31.564C197.082 31.6853 197.143 31.8326 197.143 32.006C197.143 32.1446 196.926 32.4133 196.493 32.812C196.077 33.2106 195.514 33.6786 194.803 34.216C194.092 34.736 193.295 35.2733 192.411 35.828C191.527 36.3826 190.608 36.9026 189.655 37.388C188.719 37.8733 187.809 38.2633 186.925 38.558C186.058 38.8526 185.278 39 184.585 39C183.684 39 182.982 38.662 182.479 37.986C181.976 37.31 181.725 36.2613 181.725 34.84C181.725 33.8866 181.846 32.9246 182.089 31.954C182.349 30.9833 182.696 30.056 183.129 29.172C183.58 28.2706 184.074 27.4733 184.611 26.78C185.166 26.0693 185.746 25.5146 186.353 25.116C186.96 24.7 187.549 24.492 188.121 24.492C189.213 24.492 190.071 24.7953 190.695 25.402C191.319 26.0086 191.631 26.806 191.631 27.794ZM184.403 32.11C184.94 31.7806 185.495 31.434 186.067 31.07C186.639 30.706 187.168 30.3333 187.653 29.952C188.138 29.5706 188.528 29.172 188.823 28.756C189.135 28.3226 189.291 27.8806 189.291 27.43C189.291 26.7886 188.944 26.468 188.251 26.468C187.818 26.468 187.358 26.7453 186.873 27.3C186.405 27.8373 185.954 28.5393 185.521 29.406C185.088 30.2726 184.715 31.174 184.403 32.11Z" fill="white"/>
<defs>
<clipPath id="clip0_42_682">
<rect width="48" height="48" fill="white"/>
</clipPath>
</defs>
</svg>
