<svg width="215" height="54" viewBox="0 0 215 54" fill="none" xmlns="http://www.w3.org/2000/svg">
<g clip-path="url(#clip0_18_454)">
<path d="M43.1241 22.787C43.0618 22.0434 42.5706 21.0042 42.0439 20.4748L30.3939 8.82483C29.87 8.29818 29.0018 8.29818 28.4752 8.82483L26.0165 11.2834C25.0615 10.1164 24.0273 8.94444 22.8794 7.79381C18.2177 3.13171 13.2514 0 10.5244 0C9.8568 0 9.3306 0.184647 8.96131 0.556213C8.00078 1.51674 8.26911 3.45735 9.72945 6.17611C11.1134 8.74342 13.4037 11.6905 16.1934 14.4775C20.8555 19.1396 25.8214 22.274 28.5488 22.274C29.2165 22.274 29.7427 22.0866 30.1147 21.7151C30.7987 21.0311 30.831 19.8263 30.2748 18.2118C31.7319 18.5915 32.8312 19.8536 32.8312 21.4358C32.8312 23.3109 31.3063 24.8281 29.4389 24.8281C27.9299 24.8281 26.6978 23.8267 26.2558 22.4646C25.6345 22.2449 24.956 21.957 24.1714 21.5363C22.6083 20.695 20.9124 19.5011 19.2001 18.1008L16.8256 20.4753C16.3017 20.9992 15.8132 22.0412 15.7482 22.7875L13.2787 52.6488C13.2136 53.3924 13.7698 54.0005 14.5134 54.0005H44.3643C45.1079 54.0005 45.6641 53.3924 45.5991 52.6488L43.1241 22.787ZM10.3261 5.85866C9.07228 3.53557 8.74119 1.73095 9.43611 1.04193C9.67215 0.803167 10.0414 0.683556 10.5162 0.683556C13.0399 0.683556 17.9221 3.80435 22.3887 8.27908C23.5447 9.4297 24.5839 10.6022 25.5313 11.7714L20.1529 17.1471C18.9913 16.2052 17.8216 15.1469 16.6687 13.9963C13.9327 11.2593 11.6778 8.37185 10.3261 5.85866ZM29.6262 21.2348C29.3929 21.4736 29.0264 21.5932 28.5461 21.5932C27.8948 21.5932 27.0726 21.3762 26.1471 20.9824C26.3749 19.3324 27.7293 18.0408 29.4361 18.0408C29.4607 18.0408 29.4848 18.0544 29.5039 18.0544C30.0929 19.5793 30.1497 20.7191 29.6262 21.2348Z" fill="black"/>
</g>
<path d="M62.512 46.344C61.9147 46.344 61.2893 46.1947 60.636 45.896C60.0013 45.616 59.46 45.1493 59.012 44.496C58.5827 43.824 58.368 42.9373 58.368 41.836C58.368 40.548 58.48 39.1853 58.704 37.748C58.928 36.3107 59.2173 34.8733 59.572 33.436C59.9453 31.98 60.356 30.5987 60.804 29.292C61.252 27.9853 61.7 26.8187 62.148 25.792C62.6147 24.7653 63.044 23.9627 63.436 23.384C63.828 22.7867 64.1547 22.488 64.416 22.488C64.7707 22.488 65.0693 22.628 65.312 22.908C65.5733 23.188 65.704 23.58 65.704 24.084C65.704 24.2893 65.5827 24.7747 65.34 25.54C65.0973 26.2867 64.7893 27.2293 64.416 28.368C64.0427 29.5067 63.6413 30.7387 63.212 32.064C62.8013 33.3893 62.4093 34.724 62.036 36.068C61.6627 37.412 61.3547 38.6813 61.112 39.876C60.8693 41.0707 60.748 42.088 60.748 42.928C60.748 43.1707 60.8133 43.404 60.944 43.628C61.0747 43.8333 61.2893 43.936 61.588 43.936C61.9987 43.936 62.5867 43.8427 63.352 43.656C64.136 43.4693 64.9853 43.2453 65.9 42.984C66.8147 42.704 67.692 42.4333 68.532 42.172C69.372 41.9107 70.0813 41.6867 70.66 41.5C71.2387 41.3133 71.5653 41.22 71.64 41.22C71.864 41.22 72.0507 41.2853 72.2 41.416C72.3493 41.528 72.424 41.7053 72.424 41.948C72.424 42.2467 72.2 42.592 71.752 42.984C71.3227 43.376 70.744 43.768 70.016 44.16C69.3067 44.552 68.5133 44.9067 67.636 45.224C66.7587 45.56 65.872 45.8307 64.976 46.036C64.0987 46.2413 63.2773 46.344 62.512 46.344ZM77.7508 45.728C77.0414 45.728 76.4534 45.4013 75.9868 44.748C75.5388 44.076 75.3148 43.208 75.3148 42.144C75.3148 41.1547 75.5574 40.1747 76.0428 39.204C76.5468 38.2333 77.2094 37.3 78.0308 36.404C78.8521 35.508 79.7481 34.6867 80.7188 33.94C81.6894 33.1747 82.6601 32.512 83.6308 31.952C84.6201 31.392 85.5254 30.9533 86.3468 30.636C87.1681 30.3187 87.8214 30.16 88.3068 30.16C88.5681 30.16 88.7828 30.216 88.9508 30.328C89.1188 30.4213 89.2028 30.5987 89.2028 30.86C89.2028 31.028 89.1374 31.1867 89.0068 31.336C89.0254 31.336 89.0441 31.336 89.0628 31.336C89.4734 31.336 89.6788 31.5787 89.6788 32.064C89.6788 32.232 89.6134 32.5773 89.4828 33.1C89.3521 33.604 89.2028 34.2387 89.0348 35.004C88.8668 35.7693 88.7174 36.6187 88.5868 37.552C88.4561 38.4667 88.3908 39.4 88.3908 40.352C88.3908 41.1547 88.6988 41.556 89.3148 41.556C90.0054 41.556 90.7054 41.3973 91.4148 41.08C92.1241 40.7627 92.8148 40.38 93.4868 39.932C94.1588 39.4653 94.7748 39.008 95.3348 38.56C95.8948 38.0933 96.3708 37.7013 96.7628 37.384C97.1548 37.0667 97.4348 36.908 97.6028 36.908C97.7521 36.908 97.8828 36.9547 97.9948 37.048C98.1068 37.1413 98.1628 37.2907 98.1628 37.496C98.1628 37.6827 97.9761 38.0187 97.6028 38.504C97.2294 38.9893 96.7348 39.54 96.1188 40.156C95.5028 40.772 94.8121 41.3693 94.0468 41.948C93.2815 42.5267 92.4974 43.0027 91.6948 43.376C90.8921 43.7493 90.1268 43.936 89.3988 43.936C88.8388 43.936 88.3254 43.768 87.8588 43.432C87.4108 43.0773 87.0468 42.48 86.7668 41.64C86.5054 40.8 86.3748 39.6427 86.3748 38.168V37.468C85.4601 38.98 84.4988 40.3613 83.4908 41.612C82.5014 42.8627 81.5121 43.8613 80.5228 44.608C79.5521 45.3547 78.6281 45.728 77.7508 45.728ZM87.7748 32.176C87.6814 32.2133 87.5508 32.2693 87.3828 32.344C86.5241 32.736 85.6281 33.2213 84.6948 33.8C83.7801 34.3787 82.8841 35.0227 82.0068 35.732C81.1481 36.4413 80.3734 37.1787 79.6828 37.944C78.9921 38.7093 78.4414 39.484 78.0308 40.268C77.6201 41.052 77.4148 41.8173 77.4148 42.564C77.4148 42.8067 77.4614 42.9933 77.5548 43.124C77.6668 43.2547 77.8534 43.32 78.1148 43.32C78.4881 43.32 78.9734 43.0867 79.5708 42.62C80.1681 42.1347 80.8214 41.5 81.5308 40.716C82.2588 39.932 82.9868 39.064 83.7148 38.112C84.4428 37.16 85.1334 36.1987 85.7868 35.228C86.4588 34.2573 87.0374 33.3613 87.5228 32.54C87.5974 32.4093 87.6814 32.288 87.7748 32.176ZM99.3084 45.028C98.5057 45.028 97.9364 44.8693 97.6004 44.552C97.2644 44.2347 97.0964 43.768 97.0964 43.152C97.0964 40.0533 97.6564 36.8147 98.7764 33.436C99.8964 30.0387 101.464 26.632 103.48 23.216C103.742 22.7867 103.947 22.516 104.096 22.404C104.264 22.292 104.46 22.236 104.684 22.236C104.946 22.236 105.179 22.3293 105.384 22.516C105.59 22.7027 105.692 22.9547 105.692 23.272C105.692 23.44 105.524 23.8973 105.188 24.644C104.852 25.372 104.423 26.3147 103.9 27.472C103.378 28.6293 102.818 29.9267 102.22 31.364C101.642 32.7827 101.091 34.2667 100.568 35.816C100.046 37.3653 99.6257 38.9053 99.3084 40.436C99.7377 39.8013 100.251 39.12 100.848 38.392C101.464 37.664 102.118 36.936 102.808 36.208C103.499 35.48 104.199 34.8173 104.908 34.22C105.636 33.6227 106.336 33.1467 107.008 32.792C107.68 32.4373 108.296 32.26 108.856 32.26C109.584 32.26 110.219 32.568 110.76 33.184C111.32 33.7813 111.6 34.6867 111.6 35.9C111.6 36.9267 111.32 37.9813 110.76 39.064C110.2 40.128 109.379 41.1173 108.296 42.032C107.232 42.928 105.944 43.656 104.432 44.216C102.92 44.7573 101.212 45.028 99.3084 45.028ZM99.4204 42.9C100.97 42.9 102.379 42.6387 103.648 42.116C104.918 41.5933 106 40.9307 106.896 40.128C107.811 39.3067 108.511 38.4573 108.996 37.58C109.5 36.684 109.752 35.872 109.752 35.144C109.752 34.6213 109.575 34.36 109.22 34.36C108.791 34.36 108.24 34.5653 107.568 34.976C106.896 35.3867 106.168 35.928 105.384 36.6C104.619 37.272 103.854 38 103.088 38.784C102.323 39.5493 101.614 40.296 100.96 41.024C100.326 41.752 99.8124 42.3773 99.4204 42.9ZM125.576 32.932C125.576 33.5293 125.39 34.1173 125.016 34.696C124.643 35.256 124.148 35.7973 123.532 36.32C122.916 36.824 122.235 37.3 121.488 37.748C120.742 38.196 119.995 38.588 119.248 38.924C118.502 39.26 117.82 39.5307 117.204 39.736C117.055 40.464 116.98 41.108 116.98 41.668C116.98 42.0227 117.064 42.2747 117.232 42.424C117.4 42.5733 117.662 42.648 118.016 42.648C118.8 42.648 119.631 42.508 120.508 42.228C121.386 41.948 122.282 41.584 123.196 41.136C124.111 40.688 124.988 40.212 125.828 39.708C126.668 39.204 127.434 38.728 128.124 38.28C128.834 37.832 129.422 37.468 129.888 37.188C130.355 36.908 130.663 36.768 130.812 36.768C131.036 36.768 131.204 36.8427 131.316 36.992C131.447 37.1227 131.512 37.2813 131.512 37.468C131.512 37.6173 131.279 37.9067 130.812 38.336C130.364 38.7653 129.758 39.2693 128.992 39.848C128.227 40.408 127.368 40.9867 126.416 41.584C125.464 42.1813 124.475 42.7413 123.448 43.264C122.44 43.7867 121.46 44.2067 120.508 44.524C119.575 44.8413 118.735 45 117.988 45C117.018 45 116.262 44.636 115.72 43.908C115.179 43.18 114.908 42.0507 114.908 40.52C114.908 39.4933 115.039 38.4573 115.3 37.412C115.58 36.3667 115.954 35.368 116.42 34.416C116.906 33.4453 117.438 32.5867 118.016 31.84C118.614 31.0747 119.239 30.4773 119.892 30.048C120.546 29.6 121.18 29.376 121.796 29.376C122.972 29.376 123.896 29.7027 124.568 30.356C125.24 31.0093 125.576 31.868 125.576 32.932ZM117.792 37.58C118.371 37.2253 118.968 36.852 119.584 36.46C120.2 36.068 120.77 35.6667 121.292 35.256C121.815 34.8453 122.235 34.416 122.552 33.968C122.888 33.5013 123.056 33.0253 123.056 32.54C123.056 31.8493 122.683 31.504 121.936 31.504C121.47 31.504 120.975 31.8027 120.452 32.4C119.948 32.9787 119.463 33.7347 118.996 34.668C118.53 35.6013 118.128 36.572 117.792 37.58ZM135.078 46.12C133.64 46.12 132.511 45.6533 131.69 44.72C130.887 43.768 130.486 42.4427 130.486 40.744C130.486 39.6987 130.626 38.476 130.906 37.076C131.204 35.6573 131.578 34.164 132.026 32.596C132.492 31.0093 132.996 29.4413 133.538 27.892C134.079 26.3427 134.602 24.9053 135.106 23.58C135.628 22.236 136.086 21.116 136.478 20.22C136.702 19.716 137.019 19.464 137.43 19.464C137.99 19.464 138.27 19.8093 138.27 20.5C138.27 20.724 138.167 21.1813 137.962 21.872C137.756 22.5627 137.486 23.4213 137.15 24.448C136.814 25.456 136.45 26.576 136.058 27.808C135.666 29.04 135.264 30.3093 134.854 31.616C134.462 32.904 134.098 34.1827 133.762 35.452C133.426 36.7027 133.155 37.8787 132.95 38.98C132.744 40.0813 132.642 41.024 132.642 41.808C132.642 42.312 132.772 42.7133 133.034 43.012C133.314 43.292 133.687 43.432 134.154 43.432C135.012 43.432 135.871 43.264 136.73 42.928C137.607 42.5733 138.447 42.144 139.25 41.64C140.052 41.1173 140.78 40.604 141.434 40.1C142.106 39.5773 142.675 39.148 143.142 38.812C143.608 38.4573 143.935 38.28 144.122 38.28C144.532 38.28 144.738 38.504 144.738 38.952C144.738 39.1013 144.588 39.3813 144.29 39.792C143.991 40.184 143.59 40.6507 143.086 41.192C142.582 41.7333 141.994 42.2933 141.322 42.872C140.668 43.432 139.978 43.964 139.25 44.468C138.54 44.9533 137.822 45.3453 137.094 45.644C136.384 45.9613 135.712 46.12 135.078 46.12ZM150.619 46.344C150.022 46.344 149.396 46.1947 148.743 45.896C148.108 45.616 147.567 45.1493 147.119 44.496C146.69 43.824 146.475 42.9373 146.475 41.836C146.475 40.548 146.587 39.1853 146.811 37.748C147.035 36.3107 147.324 34.8733 147.679 33.436C148.052 31.98 148.463 30.5987 148.911 29.292C149.359 27.9853 149.807 26.8187 150.255 25.792C150.722 24.7653 151.151 23.9627 151.543 23.384C151.935 22.7867 152.262 22.488 152.523 22.488C152.878 22.488 153.176 22.628 153.419 22.908C153.68 23.188 153.811 23.58 153.811 24.084C153.811 24.2893 153.69 24.7747 153.447 25.54C153.204 26.2867 152.896 27.2293 152.523 28.368C152.15 29.5067 151.748 30.7387 151.319 32.064C150.908 33.3893 150.516 34.724 150.143 36.068C149.77 37.412 149.462 38.6813 149.219 39.876C148.976 41.0707 148.855 42.088 148.855 42.928C148.855 43.1707 148.92 43.404 149.051 43.628C149.182 43.8333 149.396 43.936 149.695 43.936C150.106 43.936 150.694 43.8427 151.459 43.656C152.243 43.4693 153.092 43.2453 154.007 42.984C154.922 42.704 155.799 42.4333 156.639 42.172C157.479 41.9107 158.188 41.6867 158.767 41.5C159.346 41.3133 159.672 41.22 159.747 41.22C159.971 41.22 160.158 41.2853 160.307 41.416C160.456 41.528 160.531 41.7053 160.531 41.948C160.531 42.2467 160.307 42.592 159.859 42.984C159.43 43.376 158.851 43.768 158.123 44.16C157.414 44.552 156.62 44.9067 155.743 45.224C154.866 45.56 153.979 45.8307 153.083 46.036C152.206 46.2413 151.384 46.344 150.619 46.344ZM172.564 45.672C172.246 45.672 171.976 45.532 171.752 45.252C171.528 44.972 171.416 44.5613 171.416 44.02C171.416 43.3853 171.509 42.48 171.696 41.304C171.901 40.128 172.2 38.5693 172.592 36.628C172.088 37.8227 171.528 38.952 170.912 40.016C170.314 41.08 169.68 41.948 169.008 42.62C168.336 43.292 167.645 43.628 166.936 43.628C166.245 43.628 165.629 43.3573 165.088 42.816C164.565 42.2747 164.304 41.3227 164.304 39.96C164.304 39.1947 164.369 38.336 164.5 37.384C164.63 36.4133 164.798 35.452 165.004 34.5C165.209 33.548 165.414 32.6987 165.62 31.952C165.825 31.1867 166.012 30.6267 166.18 30.272C166.31 29.9733 166.441 29.7773 166.572 29.684C166.702 29.572 166.88 29.516 167.104 29.516C167.365 29.516 167.645 29.628 167.944 29.852C168.242 30.076 168.392 30.4493 168.392 30.972C168.392 31.1027 168.326 31.4107 168.196 31.896C168.084 32.3627 167.934 32.9413 167.748 33.632C167.58 34.304 167.402 35.032 167.216 35.816C167.029 36.6 166.87 37.384 166.74 38.168C166.628 38.952 166.572 39.6707 166.572 40.324C166.572 40.6787 166.609 40.968 166.684 41.192C166.758 41.416 166.945 41.528 167.244 41.528C167.505 41.528 167.832 41.2667 168.224 40.744C168.634 40.2213 169.073 39.5307 169.54 38.672C170.025 37.7947 170.52 36.824 171.024 35.76C171.546 34.696 172.05 33.604 172.536 32.484C173.04 31.364 173.497 30.3 173.908 29.292C174.057 28.956 174.216 28.7507 174.384 28.676C174.552 28.5827 174.738 28.536 174.944 28.536C175.28 28.536 175.578 28.676 175.84 28.956C176.12 29.2173 176.26 29.5627 176.26 29.992C176.26 30.272 176.204 30.7573 176.092 31.448C175.998 32.1387 175.858 32.9507 175.672 33.884C175.504 34.7987 175.308 35.7693 175.084 36.796C174.878 37.8227 174.673 38.84 174.468 39.848C174.262 40.8373 174.066 41.7427 173.88 42.564C173.712 43.3853 173.572 44.048 173.46 44.552C173.366 45.0187 173.236 45.3173 173.068 45.448C172.918 45.5973 172.75 45.672 172.564 45.672ZM180.745 43.992C180.465 43.992 180.26 43.8893 180.129 43.684C179.999 43.4787 179.933 43.2173 179.933 42.9C179.933 42.6387 180.101 42.2653 180.437 41.78C180.792 41.276 181.249 40.688 181.809 40.016C182.388 39.3253 183.023 38.588 183.713 37.804C184.404 37.02 185.104 36.2267 185.813 35.424C184.955 33.968 184.301 32.82 183.853 31.98C183.405 31.1213 183.181 30.4493 183.181 29.964C183.181 29.628 183.293 29.32 183.517 29.04C183.741 28.7413 183.965 28.592 184.189 28.592C184.451 28.592 184.703 28.7507 184.945 29.068C185.207 29.3667 185.524 29.88 185.897 30.608C186.271 31.3173 186.775 32.2973 187.409 33.548C188.436 32.316 189.285 31.308 189.957 30.524C190.648 29.74 191.199 29.1333 191.609 28.704C192.039 28.2747 192.375 27.976 192.617 27.808C192.879 27.6213 193.103 27.528 193.289 27.528C193.513 27.528 193.7 27.6213 193.849 27.808C193.999 27.976 194.073 28.256 194.073 28.648C194.073 29.0213 193.896 29.4787 193.541 30.02C193.205 30.5613 192.757 31.1493 192.197 31.784C191.637 32.4187 191.031 33.072 190.377 33.744C189.743 34.3973 189.136 35.032 188.557 35.648C189.491 37.2533 190.387 38.6533 191.245 39.848C192.104 41.024 192.795 41.9947 193.317 42.76C193.859 43.5253 194.129 44.0853 194.129 44.44C194.129 44.6827 194.073 44.8693 193.961 45C193.849 45.112 193.635 45.168 193.317 45.168C193.093 45.168 192.832 45.0747 192.533 44.888C192.235 44.7013 191.852 44.3373 191.385 43.796C190.937 43.2547 190.349 42.4707 189.621 41.444C188.912 40.3987 188.035 39.036 186.989 37.356C186.336 38.084 185.683 38.84 185.029 39.624C184.395 40.3893 183.788 41.108 183.209 41.78C182.649 42.4333 182.155 42.9653 181.725 43.376C181.296 43.7867 180.969 43.992 180.745 43.992ZM208.679 32.932C208.679 33.5293 208.493 34.1173 208.119 34.696C207.746 35.256 207.251 35.7973 206.635 36.32C206.019 36.824 205.338 37.3 204.591 37.748C203.845 38.196 203.098 38.588 202.351 38.924C201.605 39.26 200.923 39.5307 200.307 39.736C200.158 40.464 200.083 41.108 200.083 41.668C200.083 42.0227 200.167 42.2747 200.335 42.424C200.503 42.5733 200.765 42.648 201.119 42.648C201.903 42.648 202.734 42.508 203.611 42.228C204.489 41.948 205.385 41.584 206.299 41.136C207.214 40.688 208.091 40.212 208.931 39.708C209.771 39.204 210.537 38.728 211.227 38.28C211.937 37.832 212.525 37.468 212.991 37.188C213.458 36.908 213.766 36.768 213.915 36.768C214.139 36.768 214.307 36.8427 214.419 36.992C214.55 37.1227 214.615 37.2813 214.615 37.468C214.615 37.6173 214.382 37.9067 213.915 38.336C213.467 38.7653 212.861 39.2693 212.095 39.848C211.33 40.408 210.471 40.9867 209.519 41.584C208.567 42.1813 207.578 42.7413 206.551 43.264C205.543 43.7867 204.563 44.2067 203.611 44.524C202.678 44.8413 201.838 45 201.091 45C200.121 45 199.365 44.636 198.823 43.908C198.282 43.18 198.011 42.0507 198.011 40.52C198.011 39.4933 198.142 38.4573 198.403 37.412C198.683 36.3667 199.057 35.368 199.523 34.416C200.009 33.4453 200.541 32.5867 201.119 31.84C201.717 31.0747 202.342 30.4773 202.995 30.048C203.649 29.6 204.283 29.376 204.899 29.376C206.075 29.376 206.999 29.7027 207.671 30.356C208.343 31.0093 208.679 31.868 208.679 32.932ZM200.895 37.58C201.474 37.2253 202.071 36.852 202.687 36.46C203.303 36.068 203.873 35.6667 204.395 35.256C204.918 34.8453 205.338 34.416 205.655 33.968C205.991 33.5013 206.159 33.0253 206.159 32.54C206.159 31.8493 205.786 31.504 205.039 31.504C204.573 31.504 204.078 31.8027 203.555 32.4C203.051 32.9787 202.566 33.7347 202.099 34.668C201.633 35.6013 201.231 36.572 200.895 37.58Z" fill="black"/>
<defs>
<clipPath id="clip0_18_454">
<rect width="54" height="54" fill="white"/>
</clipPath>
</defs>
</svg>
