<svg width="26" height="26" viewBox="0 0 26 26" fill="none" xmlns="http://www.w3.org/2000/svg">
<path d="M2.8301 18.5687C1.7576 14.2788 1.22135 12.135 2.3476 10.6925C3.4726 9.25 5.6851 9.25 10.1064 9.25H15.8939C20.3164 9.25 22.5264 9.25 23.6526 10.6925C24.7789 12.1338 24.2426 14.28 23.1701 18.5687C22.4876 21.2975 22.1476 22.6612 21.1301 23.4562C20.1126 24.25 18.7064 24.25 15.8939 24.25H10.1064C7.29385 24.25 5.8876 24.25 4.8701 23.4562C3.8526 22.6612 3.51135 21.2975 2.8301 18.5687Z" stroke="black" stroke-width="2.25"/>
<path d="M22.375 9.875L21.4875 6.61875C21.145 5.3625 20.9737 4.735 20.6225 4.26125C20.2723 3.79058 19.7966 3.428 19.25 3.215C18.7 3 18.05 3 16.75 3M3.625 9.875L4.5125 6.61875C4.855 5.3625 5.02625 4.735 5.3775 4.26125C5.72772 3.79058 6.20336 3.428 6.75 3.215C7.3 3 7.95 3 9.25 3" stroke="black" stroke-width="2.25"/>
<path d="M9.25 3C9.25 2.66848 9.3817 2.35054 9.61612 2.11612C9.85054 1.8817 10.1685 1.75 10.5 1.75H15.5C15.8315 1.75 16.1495 1.8817 16.3839 2.11612C16.6183 2.35054 16.75 2.66848 16.75 3C16.75 3.33152 16.6183 3.64946 16.3839 3.88388C16.1495 4.1183 15.8315 4.25 15.5 4.25H10.5C10.1685 4.25 9.85054 4.1183 9.61612 3.88388C9.3817 3.64946 9.25 3.33152 9.25 3Z" stroke="black" stroke-width="2.25"/>
</svg>
