<svg width="36" height="36" viewBox="0 0 36 36" fill="none" xmlns="http://www.w3.org/2000/svg">
<g clip-path="url(#clip0_18_485)">
<path d="M7.884 0H28.116C32.4703 0 36 3.52969 36 7.884V28.116C36 32.4703 32.4703 36 28.116 36H7.884C3.52969 36 0 32.4703 0 28.116V7.884C0 3.52969 3.52969 0 7.884 0Z" fill="url(#paint0_linear_18_485)"/>
<path d="M11.5372 26.1296L11.5406 26.1307L10.3097 28.2626C9.86042 29.0408 8.86536 29.3075 8.08714 28.8582C7.30892 28.4089 7.0423 27.4138 7.4916 26.6356L8.39835 25.0651L8.48539 24.9143C8.64078 24.691 9.02427 24.3054 9.79138 24.378C9.79138 24.378 11.5966 24.5739 11.7272 25.5121C11.7272 25.5121 11.7449 25.8208 11.5372 26.1296ZM28.9948 20.6846H25.1566C24.8952 20.667 24.7812 20.5737 24.7362 20.5194L24.7333 20.5145L20.6247 13.398L20.6194 13.4015L20.373 13.0483C19.9691 12.4306 19.3279 14.0101 19.3279 14.0101C18.5622 15.7702 19.4366 17.7711 19.7413 18.376L25.4481 28.2605C25.8973 29.0386 26.8924 29.3053 27.6707 28.8559C28.4488 28.4066 28.7156 27.4115 28.2661 26.6333L26.8392 24.1617C26.8115 24.1018 26.7634 23.9392 27.056 23.9385H28.9948C29.8934 23.9385 30.6219 23.2101 30.6219 22.3115C30.6219 21.4129 29.8934 20.6846 28.9948 20.6846ZM21.5398 22.8962C21.5398 22.8962 21.7446 23.9384 20.9519 23.9384H6.76302C5.86442 23.9384 5.13599 23.21 5.13599 22.3114C5.13599 21.4128 5.86442 20.6843 6.76302 20.6843H10.4108C10.9998 20.6503 11.1393 20.3103 11.1393 20.3103L11.1426 20.312L15.9042 12.0646L15.9028 12.0643C15.9896 11.905 15.9173 11.7544 15.9048 11.7306L14.3322 9.00683C13.8829 8.22875 14.1495 7.23355 14.9277 6.78439C15.7059 6.33524 16.701 6.60158 17.1503 7.3798L17.8796 8.64303L18.6076 7.38205C19.0569 6.60397 20.0519 6.3372 20.8302 6.78664C21.6084 7.23608 21.875 8.23086 21.4257 9.00908L14.7997 20.4855C14.7708 20.5554 14.7619 20.6651 14.9775 20.6843H18.938L18.9389 20.723C18.9389 20.723 21.228 20.7586 21.5398 22.8962Z" fill="white"/>
</g>
<defs>
<linearGradient id="paint0_linear_18_485" x1="1800" y1="0" x2="1800" y2="3600" gradientUnits="userSpaceOnUse">
<stop stop-color="#17C9FB"/>
<stop offset="1" stop-color="#1A74E8"/>
</linearGradient>
<clipPath id="clip0_18_485">
<rect width="36" height="36" fill="white"/>
</clipPath>
</defs>
</svg>
