<svg width="31" height="36" viewBox="0 0 31 36" fill="none" xmlns="http://www.w3.org/2000/svg">
<g clip-path="url(#clip0_18_442)">
<path d="M25.8893 2.80206C24.2283 0.908837 21.2257 0.097168 17.3846 0.097168H6.23649C5.85642 0.0971094 5.48881 0.23267 5.19977 0.479466C4.91074 0.726261 4.71925 1.06809 4.65976 1.44347L0.0179051 30.8832C-0.0743598 31.4638 0.375163 31.9895 0.963561 31.9895H7.846L9.57447 21.026L9.52083 21.3694C9.64397 20.5944 10.3068 20.0228 11.0916 20.0228H14.3621C20.787 20.0228 25.8179 17.4132 27.2874 9.86402C27.3311 9.64074 27.3688 9.42343 27.4015 9.21113C27.216 9.1129 27.216 9.1129 27.4015 9.21113C27.8391 6.42089 27.3985 4.52159 25.8893 2.80206Z" fill="#27346A"/>
<path d="M12.208 8.20599C12.3961 8.11625 12.6019 8.06982 12.8103 8.07009H21.5502C22.5851 8.07009 23.5505 8.13745 24.4326 8.27942C24.6794 8.31881 24.925 8.3658 25.1689 8.42032C25.5146 8.49662 25.8564 8.59 26.1929 8.7001C26.6266 8.84493 27.0304 9.01361 27.4016 9.21113C27.8391 6.41982 27.3985 4.52159 25.8893 2.80206C24.2273 0.908837 21.2257 0.097168 17.3846 0.097168H6.23553C5.45057 0.097168 4.78278 0.668638 4.65976 1.44347L0.0179057 30.8822C-0.0743592 31.4637 0.375164 31.9886 0.962608 31.9886H7.846L11.4321 9.24784C11.4673 9.02433 11.5564 8.81273 11.6916 8.63125C11.8267 8.44977 12.0039 8.30383 12.208 8.20599Z" fill="#27346A"/>
<path d="M27.2874 9.86407C25.8178 17.4121 20.7871 20.0229 14.3621 20.0229H11.0906C10.3058 20.0229 9.64286 20.5945 9.52091 21.3694L7.37056 35.0011C7.29022 35.5092 7.68312 35.9696 8.19713 35.9696H13.9989C14.3312 35.9695 14.6526 35.8508 14.9053 35.6349C15.1579 35.419 15.3253 35.1201 15.3772 34.7918L15.4337 34.4962L16.5272 27.5661L16.5976 27.183C16.6496 26.8548 16.8169 26.5559 17.0696 26.34C17.3222 26.1241 17.6436 26.0054 17.9759 26.0053H18.8442C24.4644 26.0053 28.8651 23.722 30.1511 17.1185C30.6878 14.3589 30.4101 12.0549 28.9901 10.4366C28.5594 9.94644 28.0245 9.54162 27.4015 9.21118C27.3677 9.42456 27.3311 9.6408 27.2874 9.86407Z" fill="#2790C3"/>
<path d="M25.8635 8.59803C25.6343 8.53113 25.403 8.47189 25.1699 8.42042C24.9259 8.36676 24.6803 8.32009 24.4336 8.28047C23.5505 8.13754 22.5859 8.07007 21.55 8.07007H12.8112C12.6027 8.06972 12.3967 8.11655 12.2089 8.20704C12.0046 8.30453 11.8271 8.45036 11.6919 8.63191C11.5567 8.81345 11.4677 9.02523 11.4328 9.24889L9.57537 21.0261L9.52173 21.3694C9.64391 20.5945 10.3067 20.0229 11.0917 20.0229H14.3631C20.7881 20.0229 25.8188 17.4133 27.2883 9.86411C27.3321 9.64084 27.3688 9.42448 27.4025 9.21122C27.0304 9.01493 26.6275 8.8449 26.1938 8.70114C26.0843 8.66485 25.9742 8.63047 25.8636 8.59803" fill="#1F264F"/>
</g>
<defs>
<clipPath id="clip0_18_442">
<rect width="30.52" height="36" fill="white"/>
</clipPath>
</defs>
</svg>
