<svg width="112" height="31" viewBox="0 0 112 31" fill="none" xmlns="http://www.w3.org/2000/svg">
<path d="M57.4252 10.1961C57.3619 14.3472 61.8766 16.6635 65.2775 18.0408C68.7717 19.4538 69.9454 20.36 69.9315 21.6237C69.9055 23.5576 67.1443 24.4111 64.5606 24.4443C60.0528 24.5023 57.4317 23.4329 55.348 22.624L53.7241 28.9388C55.8147 29.7394 59.6858 30.4376 63.7001 30.4683C73.1229 30.4683 79.2876 26.6027 79.321 20.6094C79.3579 13.003 66.6612 12.582 66.7479 9.18217C66.7778 8.15126 67.9615 7.05114 70.5552 6.77143C71.8391 6.63013 75.3831 6.52199 79.4013 8.0597L80.9783 1.94995C78.8174 1.29608 76.0402 0.669966 72.5825 0.669966C63.7135 0.669966 57.4755 4.58814 57.4252 10.1961ZM96.1321 1.19623C94.4115 1.19623 92.9615 2.03033 92.3144 3.31032L78.8543 30.0195H88.2703L90.144 25.716H101.65L102.737 30.0195H111.036L103.794 1.19623H96.1321ZM97.4494 8.98248L100.167 19.8059H92.7247L97.4494 8.98248ZM46.0089 1.19659L38.5868 30.0191H47.5595L54.9781 1.19587L46.0089 1.19659ZM32.7353 1.19659L23.3961 20.8145L19.6183 4.1336C19.175 2.27148 17.4244 1.19623 15.4804 1.19623H0.213831L0 2.03321C3.13417 2.59841 6.69513 3.51001 8.85253 4.48541C10.1728 5.08124 10.5493 5.60211 10.983 7.01798L18.1384 30.0195H27.6202L42.1573 1.19623L32.7353 1.19659Z" fill="url(#paint0_linear_18_441)"/>
<defs>
<linearGradient id="paint0_linear_18_441" x1="5104.78" y1="90.2436" x2="5176.47" y2="-2970.84" gradientUnits="userSpaceOnUse">
<stop stop-color="#222357"/>
<stop offset="1" stop-color="#254AA5"/>
</linearGradient>
</defs>
</svg>
